15_ID_stride3.mot
nRows=8
nColumns=38

name 15_ID_stride3.mot
datacolumns 38
datarows 8
range 1.6000000000 1.6350000000
endheader
time	pelvis_tilt_moment	pelvis_list_moment	pelvis_rotation_moment	pelvis_tx_force	pelvis_ty_force	pelvis_tz_force	hip_flexion_r_moment	hip_adduction_r_moment	hip_rotation_r_moment	knee_angle_r_moment	ankle_angle_r_moment	subtalar_angle_r_moment	mtp_angle_r_moment	hip_flexion_l_moment	hip_adduction_l_moment	hip_rotation_l_moment	knee_angle_l_moment	ankle_angle_l_moment	subtalar_angle_l_moment	mtp_angle_l_moment	lumbar_extension_moment	lumbar_bending_moment	lumbar_rotation_moment	arm_flex_r_moment	arm_add_r_moment	arm_rot_r_moment	elbow_flex_r_moment	pro_sup_r_moment	wrist_flex_r_moment	wrist_dev_r_moment	arm_flex_l_moment	arm_add_l_moment	arm_rot_l_moment	elbow_flex_l_moment	pro_sup_l_moment	wrist_flex_l_moment	wrist_dev_l_moment
        1.6000000000	        8.2944038409	     -106.1432689588	      -16.3695217036	      -12.4414536879	      252.2873897973	      127.1305132319	     -114.3212540176	        3.4019040575	        0.0893993403	      -60.5024775934	        1.4353596846	       -0.2175783907	        0.2081939471	       57.9894309632	       -3.1141881319	        4.1861832662	       21.2295946081	        4.6604338228	       -0.7188154936	        0.2691007242	      -21.0804457596	      -12.3025558970	        3.5752684312	       -2.2100453013	        0.4560845391	        0.6888912724	       -0.4809135325	        0.0327262821	        0.0597556622	        0.1010158696	       -3.6787521849	       -0.2854309073	        0.0863232491	       -0.8439154693	        0.0053405437	       -0.0173629674	        0.1079463246	
        1.6050000000	       24.5179470091	      -23.1400783397	       -6.8166273675	      -45.4973846999	      360.1940899623	      118.8405989822	      -44.5283943632	        0.2780816528	        4.5219908006	      -17.1600381338	       11.0230784580	        5.1651528597	        0.2575370157	       54.3395577866	        0.1234707045	        3.7055677518	       21.6758273434	        4.6099648475	       -0.7119376402	        0.2654428257	       -2.0531045863	      -18.7805380219	        3.7843543621	       -3.3110363334	        0.8354117646	        1.0105859472	        0.0932517361	        0.0290301428	        0.1021772549	        0.0606648799	       -4.8761595864	       -0.3778665125	        0.1556233061	       -0.2409627488	       -0.0043162767	        0.0047977432	        0.0605485604	
        1.6100000000	       45.5107084549	       39.2195779929	       -2.2597568732	      -69.1175222445	      408.0252073382	       85.1982169027	       -6.5874958813	      -13.3972718152	       10.2363133106	        4.1570847728	        4.6148299690	        9.5238717843	        0.2955168838	       56.0418212272	        2.3823238442	        3.0631980583	       22.5005340008	        4.6360997771	       -0.7092391172	        0.2645966341	       17.6504628792	      -24.6906520988	        4.8902126725	       -3.9699608201	        1.3269892721	        1.3940433884	        0.7604507204	        0.0259215378	        0.1535092391	        0.0104310374	       -5.7832595648	       -0.5454280413	        0.0928160101	        0.4501489706	       -0.0187826215	        0.0137646853	       -0.0005603916	
        1.6150000000	       69.0957703756	       94.8458124022	        2.9135684683	      -72.1601911872	      393.5038683433	       22.6344292174	       12.1268896822	      -36.8268659283	       20.1479498464	       19.7481148288	      -10.4542550741	       15.4354600986	        0.3144008917	       61.1589616744	        3.1527002498	        2.3246727714	       23.5524337261	        4.7077611869	       -0.7076319539	        0.2649743603	       35.1962889976	      -28.8880495205	        6.9583091183	       -4.0243472526	        1.8684057901	        1.7951016007	        1.4491906846	        0.0235683664	        0.2082406081	       -0.0440426405	       -6.2800985423	       -0.7614701230	       -0.0780326158	        1.1543389452	       -0.0368782212	        0.0117649330	       -0.0687853393	
        1.6200000000	       87.1503270124	      113.3195181408	        9.8857622834	      -66.5720566214	      314.9189105147	      -35.0020481005	       10.8286435136	      -62.0669736077	       34.7093548421	       24.1852288838	      -32.1109941923	       23.6275842650	        0.3156253165	       68.0708750887	        3.0634984111	        1.6313107892	       24.4570230922	        4.7758986940	       -0.7050648080	        0.2652280959	       48.0898053195	      -29.9237301087	        9.5181359513	       -3.7910328070	        2.3358623262	        2.1425996074	        2.0549560299	        0.0218470035	        0.2573235716	       -0.0932310690	       -6.3936398176	       -0.9248975587	       -0.3083425081	        1.7675801789	       -0.0549597150	        0.0008487849	       -0.1317374965	
        1.6250000000	       93.4582469820	      109.2729808483	       18.0091430131	      -46.0973579906	      188.8639833713	      -56.6459553005	      -26.7264693946	      -80.4132843234	       50.2914658913	       19.2261822636	      -59.6744291192	       33.2282589200	        0.2946611927	       73.2813596211	        1.7478974119	        1.1084451677	       24.8975236269	        4.7965297802	       -0.6982575573	        0.2635712417	       55.4191603141	      -28.6310600241	       12.1454679471	       -3.2322080416	        2.5980108385	        2.3770441282	        2.5031017566	        0.0203772692	        0.2936105644	       -0.1299575803	       -6.3522491571	       -0.9761327200	       -0.5026391786	        2.2208936831	       -0.0694357843	       -0.0130407207	       -0.1795510785	
        1.6300000000	       81.2865591359	       61.4014657848	       26.5665040089	      -23.5015325633	       47.1964816609	      -36.4270129074	      -86.9347701504	      -87.3593015785	       61.2413174183	        7.2513544361	      -88.2894158112	       42.7923901091	        0.2519119361	       75.4625240707	       -0.1320968164	        0.7910670397	       24.9479069317	        4.7366619544	       -0.6852987669	        0.2586190431	       58.0420898879	      -23.5071628638	       14.4224821437	       -2.6697665240	        2.6572728308	        2.4814437209	        2.7796217025	        0.0185011152	        0.3141399791	       -0.1523604005	       -6.1802232923	       -0.8468740165	       -0.6044136170	        2.5068556813	       -0.0785015648	       -0.0226961070	       -0.2089341759	
        1.6350000000	       49.3088472538	        4.6703666421	       33.2579612554	       -5.2556747252	      -83.8594457783	       16.5182422727	     -148.2691548499	      -78.1606403910	       59.9017791850	        4.2030260596	     -112.9755693124	       50.3053676583	        0.1957941864	       73.8891197214	       -2.0131789216	        0.6113524100	       24.6441300658	        4.6154001147	       -0.6643118320	        0.2518945307	       56.1844744608	      -16.4788591593	       16.0661041611	       -2.1894548850	        2.5081095623	        2.4551208359	        2.9280711385	        0.0150525723	        0.3191554098	       -0.1636970585	       -5.9596613968	       -0.5679878630	       -0.5913168837	        2.6783687874	       -0.0823655573	       -0.0241841459	       -0.2229598390	
